<svg width="149" height="19" viewBox="0 0 149 19" fill="none" xmlns="http://www.w3.org/2000/svg">
<path d="M3.648 18.336L7.104 14.88L10.56 18.336L14.016 14.88L17.448 18.336L20.904 14.88L24.36 18.336L27.816 14.88L14.016 0.959999L0.192 14.88L3.648 18.336Z" fill="#735DE9"/>
<path d="M52.245 1.2H49.509L43.485 10.704L37.509 1.2H34.917V18H37.461V5.328L42.501 13.464H44.445L49.749 5.28V18H52.245V1.2ZM60.7689 18.336C63.9609 18.336 65.3529 16.536 66.0729 15.168L64.0089 14.112C63.5049 15.216 62.6889 16.176 60.8169 16.176C58.8249 16.176 57.3609 14.856 57.2889 12.768H66.3849V11.832C66.3849 8.232 64.0809 5.832 60.6729 5.832C57.1929 5.832 54.7689 8.256 54.7689 11.952V12.24C54.7689 15.912 57.1689 18.336 60.7689 18.336ZM57.3129 10.872C57.5529 9.096 58.7769 8.016 60.6489 8.016C62.4969 8.016 63.7449 9.096 63.8889 10.872H57.3129ZM70.5467 18H76.6427V15.912H73.0187V8.256H76.6427V6.168H73.0187V2.256H70.5467V6.168H67.2827V8.256H70.5467V18ZM82.8304 18.336C85.2784 18.336 86.1424 17.088 86.5024 16.32H86.8864V18H90.6064V15.936H88.9264V10.344C88.9264 7.464 87.0544 5.832 83.9824 5.832C80.9584 5.832 79.3984 7.44 78.8224 9.312L81.1264 10.056C81.4144 8.784 82.2544 7.896 83.9584 7.896C85.6864 7.896 86.5024 8.808 86.5024 10.176V10.944H82.9024C80.3104 10.944 78.3904 12.192 78.3904 14.592C78.3904 16.992 80.3104 18.336 82.8304 18.336ZM80.8624 14.52C80.8624 13.44 81.7264 12.864 83.0464 12.864H86.5024V13.104C86.5024 15.096 85.1584 16.296 83.1904 16.296C81.7264 16.296 80.8624 15.6 80.8624 14.52ZM102.181 18H104.797V11.904L110.629 1.2H107.701L103.669 8.808H103.309L99.2773 1.2H96.3493L102.181 11.904V18ZM112.242 18H114.714V6.168H112.242V18ZM111.786 4.56H115.194V1.416H111.786V4.56ZM123.326 18.336C126.518 18.336 127.91 16.536 128.63 15.168L126.566 14.112C126.062 15.216 125.246 16.176 123.374 16.176C121.382 16.176 119.918 14.856 119.846 12.768H128.942V11.832C128.942 8.232 126.638 5.832 123.23 5.832C119.75 5.832 117.326 8.256 117.326 11.952V12.24C117.326 15.912 119.726 18.336 123.326 18.336ZM119.87 10.872C120.11 9.096 121.334 8.016 123.206 8.016C125.054 8.016 126.302 9.096 126.446 10.872H119.87ZM131.438 18H133.91V1.2H131.438V18ZM141.995 18.336C144.299 18.336 145.427 17.352 146.027 16.32H146.411V18H148.835V1.2H146.363V7.776H145.979C145.427 6.816 144.299 5.832 141.995 5.832C139.019 5.832 136.523 8.088 136.523 11.904V12.264C136.523 16.104 139.043 18.336 141.995 18.336ZM139.019 12.192V11.976C139.019 9.432 140.555 8.016 142.691 8.016C144.851 8.016 146.387 9.432 146.387 11.976V12.192C146.387 14.736 144.827 16.176 142.691 16.176C140.579 16.176 139.019 14.736 139.019 12.192Z" fill="#231B51"/>
</svg>
